<svg width="26" height="26" viewBox="0 0 26 26" fill="none" xmlns="http://www.w3.org/2000/svg">
<path d="M24.501 23.8921H23.0332V21.8921H24.0586C24.335 21.8921 24.5586 21.6685 24.5586 21.3921C24.5586 21.1157 24.335 20.8921 24.0586 20.8921H23.0332V17.3921C23.0332 17.1157 22.8096 16.8921 22.5332 16.8921H14.5332C14.2568 16.8921 14.0332 17.1157 14.0332 17.3921V20.8921H13.0576C12.7812 20.8921 12.5576 21.1157 12.5576 21.3921C12.5576 21.6685 12.7812 21.8921 13.0576 21.8921H14.0332V23.8921H9.03125V13.6251C9.04358 13.5918 9.05981 13.5605 9.06494 13.5239C9.15088 12.9097 9.58887 11.1841 10.5684 10.5835C10.9883 10.3262 11.4717 10.2964 12.0459 10.4936C12.3062 10.583 12.5913 10.4438 12.6812 10.1836C12.771 9.92236 12.6323 9.63818 12.3711 9.54834C11.5093 9.25195 10.7275 9.31347 10.0454 9.73096C9.62781 9.98712 9.29626 10.3571 9.03125 10.7632V7.32471C9.03125 7.04834 8.80762 6.82471 8.53125 6.82471C8.25488 6.82471 8.03125 7.04834 8.03125 7.32471V10.5301C7.69495 10.1748 7.29401 9.87958 6.83594 9.80664C6.49609 9.75146 5.98096 9.79785 5.46826 10.3218C5.27539 10.519 5.27881 10.8354 5.47607 11.0288C5.67431 11.2227 5.99023 11.2183 6.1831 11.021C6.41601 10.7837 6.5791 10.7769 6.67871 10.7944C7.12347 10.8653 7.67755 11.5931 8.03125 12.2746V23.8921H1.5C1.22363 23.8921 1 24.1157 1 24.3921C1 24.6685 1.22363 24.8921 1.5 24.8921H24.501C24.7774 24.8921 25.001 24.6685 25.001 24.3921C25.001 24.1157 24.7773 23.8921 24.501 23.8921ZM22.0332 18.8921H15.0332V17.8921H22.0332V18.8921ZM15.0332 19.8921H22.0332V20.8921H15.0332V19.8921ZM15.0332 21.8921H22.0332V23.8921H15.0332V21.8921Z" fill="#2FCB48" stroke="#2FCB48" stroke-width="0.5"/>
<path d="M6.30195 14.8706C6.57099 14.8081 6.73896 14.5395 6.67695 14.271C6.61445 14.0014 6.34736 13.8335 6.07734 13.896C4.80634 14.1889 3.79902 13.2754 3.36836 12.2368C2.87031 11.0361 3.0041 9.42675 4.42499 8.5371C4.612 8.4204 4.69989 8.19481 4.64228 7.98241C4.23017 6.46483 4.53583 4.83739 5.45966 3.62938C6.25117 2.59374 7.40498 1.99999 8.60419 1.9995C10.7287 2.08788 12.4997 3.74852 12.7233 5.86327C12.7438 6.05956 12.8786 6.22557 13.0666 6.28612C14.7834 6.84032 15.9445 8.4868 15.8908 10.3042C15.8908 11.7788 15.2121 13.1079 14.0754 13.8594C13.0881 14.5132 11.9216 14.6323 10.8752 14.187C10.6213 14.0786 10.3268 14.1968 10.2194 14.4517C10.111 14.7056 10.2297 14.9985 10.4836 15.1069C11.029 15.3394 11.5988 15.4536 12.1677 15.4536C13.0168 15.4536 13.8649 15.1978 14.6271 14.6938C16.0441 13.7563 16.8908 12.1152 16.8908 10.3188C16.9543 8.18114 15.6457 6.22021 13.6745 5.44238C13.2638 2.99072 11.154 1.10449 8.62469 1C7.091 1 5.64764 1.73682 4.66522 3.02197C3.62421 4.38329 3.23408 6.18163 3.59345 7.89598C1.95966 9.12352 1.82148 11.1177 2.44452 12.6201C3.03632 14.0474 4.46064 15.2944 6.30195 14.8706Z" fill="#2FCB48" stroke="#2FCB48" stroke-width="0.5"/>
</svg>
