<svg width="400" height="222" viewBox="0 0 400 222" fill="none" xmlns="http://www.w3.org/2000/svg">
<path d="M129.371 67.2377C126.987 67.0776 70.8694 63.6276 51.2522 89.3738C43.7246 99.2477 42.6252 112.041 47.975 127.399C48.3541 128.503 49.5546 129.093 50.6583 128.697C51.7577 128.313 52.3348 127.117 51.9557 126.018C47.0946 112.074 47.9834 100.608 54.5969 91.9308C70.882 70.557 116.97 70.9909 127.109 71.3532C126.726 96.1979 119.232 115.79 105.904 126.658C94.9475 135.592 80.5579 138.503 63.1859 135.483C67.4657 126.654 75.9537 115.967 93.4478 103.481C93.511 103.439 93.57 103.393 93.6332 103.351C94.581 102.677 94.8 101.362 94.126 100.415C93.4478 99.4668 92.1336 99.2519 91.19 99.9217C90.9583 100.086 90.7308 100.25 90.5034 100.415C90.4781 100.423 90.4865 100.423 90.4823 100.431C59.3105 122.829 36.3024 153.638 39.2553 163.373C39.9293 165.589 41.7869 166.907 44.3481 166.983C44.7777 166.996 45.1948 167 45.5949 167C56.8884 167 57.8825 162.071 58.527 154.173C58.8472 150.26 59.26 145.34 61.4546 139.455C66.3158 140.352 71.0294 140.87 75.5156 140.87C88.4224 140.87 99.6654 137.18 108.562 129.922C123.246 117.947 131.334 96.4338 131.334 69.3439C131.338 68.2318 130.479 67.3135 129.371 67.2377ZM54.3315 153.828C53.7375 161.086 53.6069 163.045 44.4744 162.767C43.4677 162.737 43.3666 162.408 43.2865 162.143C42.204 158.571 47.798 148.032 58.4891 135.424C55.2245 142.884 54.719 149.051 54.3315 153.828Z" fill="#2FCB48"/>
<path d="M138 111V64.4545H158.091C161.545 64.4545 164.568 65.1364 167.159 66.5C169.75 67.8636 171.765 69.7803 173.205 72.25C174.644 74.7197 175.364 77.6061 175.364 80.9091C175.364 84.2424 174.621 87.1288 173.136 89.5682C171.667 92.0076 169.598 93.8864 166.932 95.2045C164.28 96.5227 161.182 97.1818 157.636 97.1818H145.636V87.3636H155.091C156.576 87.3636 157.841 87.1061 158.886 86.5909C159.947 86.0606 160.758 85.3106 161.318 84.3409C161.894 83.3712 162.182 82.2273 162.182 80.9091C162.182 79.5758 161.894 78.4394 161.318 77.5C160.758 76.5455 159.947 75.8182 158.886 75.3182C157.841 74.803 156.576 74.5455 155.091 74.5455H150.636V111H138ZM188.891 111.795C186.785 111.795 184.861 111.386 183.118 110.568C181.376 109.735 179.989 108.538 178.959 106.977C177.929 105.402 177.414 103.492 177.414 101.25C177.414 99.5227 177.739 98.0682 178.391 96.8864C179.042 95.7045 179.967 94.7348 181.164 93.9773C182.361 93.2197 183.777 92.6212 185.414 92.1818C187.05 91.7424 188.853 91.4015 190.823 91.1591C192.777 90.9167 194.429 90.7045 195.777 90.5227C197.141 90.3409 198.179 90.053 198.891 89.6591C199.603 89.2652 199.959 88.6288 199.959 87.75V86.9318C199.959 84.553 199.247 82.6818 197.823 81.3182C196.414 79.9394 194.383 79.25 191.732 79.25C189.217 79.25 187.164 79.803 185.573 80.9091C183.997 82.0152 182.891 83.3182 182.255 84.8182L178.414 83.4318C179.202 81.5227 180.292 80 181.686 78.8636C183.08 77.7121 184.641 76.8864 186.368 76.3864C188.095 75.8712 189.845 75.6136 191.618 75.6136C192.952 75.6136 194.338 75.7879 195.777 76.1364C197.232 76.4848 198.58 77.0909 199.823 77.9545C201.065 78.803 202.073 79.9924 202.845 81.5227C203.618 83.0379 204.005 84.9621 204.005 87.2955V111H199.959V105.477H199.709C199.224 106.508 198.505 107.508 197.55 108.477C196.595 109.447 195.398 110.242 193.959 110.864C192.52 111.485 190.83 111.795 188.891 111.795ZM189.436 108.091C191.588 108.091 193.452 107.614 195.027 106.659C196.603 105.705 197.815 104.439 198.664 102.864C199.527 101.273 199.959 99.5227 199.959 97.6136V92.5682C199.656 92.8561 199.148 93.1136 198.436 93.3409C197.739 93.5682 196.929 93.7727 196.005 93.9545C195.095 94.1212 194.186 94.2652 193.277 94.3864C192.368 94.5076 191.55 94.6136 190.823 94.7045C188.853 94.947 187.171 95.3258 185.777 95.8409C184.383 96.3561 183.315 97.0682 182.573 97.9773C181.83 98.8712 181.459 100.023 181.459 101.432C181.459 103.553 182.217 105.197 183.732 106.364C185.247 107.515 187.148 108.091 189.436 108.091ZM211.566 111V76.0909H215.498V81.4545H215.793C216.49 79.697 217.702 78.2803 219.43 77.2045C221.172 76.1136 223.142 75.5682 225.339 75.5682C225.672 75.5682 226.043 75.5758 226.452 75.5909C226.861 75.6061 227.202 75.6212 227.475 75.6364V79.75C227.293 79.7197 226.975 79.6742 226.52 79.6136C226.066 79.553 225.573 79.5227 225.043 79.5227C223.225 79.5227 221.604 79.9091 220.18 80.6818C218.77 81.4394 217.657 82.4924 216.839 83.8409C216.02 85.1894 215.611 86.7273 215.611 88.4545V111H211.566ZM234.86 97.8182L234.815 92.5227H235.724L252.088 76.0909H257.201L241.042 92.2727L240.678 92.3409L234.86 97.8182ZM231.178 111V64.4545H235.224V111H231.178ZM252.928 111L238.747 93.0682L241.656 90.2727L258.11 111H252.928ZM285.058 83.75L281.353 84.7955C280.99 83.75 280.475 82.803 279.808 81.9545C279.141 81.1061 278.27 80.4318 277.194 79.9318C276.134 79.4318 274.816 79.1818 273.24 79.1818C270.876 79.1818 268.937 79.7424 267.422 80.8636C265.906 81.9848 265.149 83.4318 265.149 85.2045C265.149 86.7045 265.664 87.9242 266.694 88.8636C267.74 89.7879 269.346 90.5227 271.512 91.0682L276.785 92.3636C279.709 93.0758 281.899 94.2045 283.353 95.75C284.823 97.2955 285.558 99.2348 285.558 101.568C285.558 103.538 285.012 105.288 283.922 106.818C282.831 108.348 281.308 109.553 279.353 110.432C277.414 111.295 275.164 111.727 272.603 111.727C269.194 111.727 266.384 110.962 264.172 109.432C261.959 107.886 260.543 105.659 259.922 102.75L263.808 101.795C264.308 103.871 265.285 105.439 266.74 106.5C268.209 107.561 270.141 108.091 272.535 108.091C275.217 108.091 277.361 107.492 278.967 106.295C280.573 105.083 281.376 103.568 281.376 101.75C281.376 100.341 280.906 99.1591 279.967 98.2045C279.028 97.2348 277.603 96.5227 275.694 96.0682L269.99 94.7045C266.959 93.9773 264.717 92.8258 263.262 91.25C261.808 89.6742 261.081 87.7197 261.081 85.3864C261.081 83.4621 261.603 81.7727 262.649 80.3182C263.694 78.8485 265.134 77.697 266.967 76.8636C268.8 76.0303 270.891 75.6136 273.24 75.6136C276.437 75.6136 278.99 76.3409 280.899 77.7955C282.823 79.2348 284.209 81.2197 285.058 83.75Z" fill="#2FCB48"/>
<path d="M312.816 101.152C311.067 101.152 310.192 100.128 310.192 98.08C310.192 96.544 310.576 94.752 311.344 92.704C311.301 92.4907 311.259 92.2773 311.216 92.064C311.216 91.808 311.216 91.552 311.216 91.296C311.216 89.0347 312.304 87.8187 314.48 87.648C315.035 86.9653 315.547 86.624 316.016 86.624C316.784 86.624 317.168 86.8373 317.168 87.264C317.168 87.392 317.104 87.52 316.976 87.648L316.784 87.84C317.765 88.1387 318.576 88.6933 319.216 89.504C319.856 90.3147 320.176 91.1893 320.176 92.128C320.176 93.792 319.728 95.4347 318.832 97.056L318.704 97.184C321.221 97.0987 323.248 96.2667 324.784 94.688C324.912 94.56 325.061 94.496 325.232 94.496C325.36 94.496 325.424 94.6027 325.424 94.816C325.424 95.0293 325.296 95.2427 325.04 95.456C323.035 97.2053 320.731 98.08 318.128 98.08C317.403 98.976 316.549 99.7013 315.568 100.256C314.587 100.853 313.669 101.152 312.816 101.152ZM317.424 97.12C318.363 95.3707 318.832 93.6853 318.832 92.064C318.832 91.0827 318.597 90.2507 318.128 89.568C317.659 88.8853 317.019 88.5013 316.208 88.416C314.928 89.824 313.904 91.4667 313.136 93.344C313.648 95.5627 315.077 96.8213 317.424 97.12ZM313.712 100C314.907 100 315.973 99.3387 316.912 98.016C314.949 97.76 313.456 96.9493 312.432 95.584C312.347 96.0107 312.261 96.416 312.176 96.8C312.133 97.184 312.112 97.5253 312.112 97.824C312.112 99.2747 312.645 100 313.712 100ZM308.51 113.376C306.974 113.376 305.716 112.928 304.734 112.032C303.881 111.179 303.454 110.176 303.454 109.024C303.454 107.829 303.881 106.805 304.734 105.952C304.862 105.781 304.99 105.696 305.118 105.696C305.289 105.696 305.374 105.781 305.374 105.952C305.374 106.037 305.31 106.187 305.182 106.4C304.585 106.997 304.286 107.808 304.286 108.832C304.286 109.813 304.606 110.667 305.247 111.392C305.929 112.203 306.91 112.608 308.19 112.608C310.153 112.608 312.116 111.819 314.078 110.24C315.06 109.472 315.998 108.555 316.894 107.488C317.748 106.464 318.58 105.291 319.39 103.968C320.756 101.621 322.057 99.296 323.294 96.992C324.489 94.688 325.62 92.4267 326.687 90.208L324.959 90.272C324.062 90.1867 323.593 89.9307 323.55 89.504V89.44C323.55 89.0987 323.849 88.928 324.447 88.928H327.263C328.201 86.88 328.969 85.1947 329.567 83.872C330.207 82.5067 330.697 81.504 331.039 80.864C332.873 77.3227 334.559 74.848 336.095 73.44C336.863 72.672 337.567 72.288 338.207 72.288C339.401 72.288 339.999 73.2267 339.999 75.104C339.999 76 339.764 76.96 339.295 77.984C337.801 81.0133 334.644 84.64 329.823 88.864C330.676 88.864 331.444 88.8853 332.127 88.928C332.809 88.928 333.407 88.928 333.919 88.928C334.431 88.928 334.857 88.928 335.199 88.928C335.583 88.8853 335.86 88.864 336.031 88.864C336.415 88.992 336.607 89.1627 336.607 89.376C336.607 89.76 336.137 90.016 335.199 90.144C334.729 90.2293 332.575 90.2933 328.735 90.336C327.071 93.664 324.511 98.528 321.054 104.928C319.476 107.659 317.769 109.685 315.934 111.008C313.844 112.587 311.369 113.376 308.51 113.376ZM329.631 88.352C333.641 84.5973 336.457 80.928 338.079 77.344C338.591 76.2347 338.847 75.3173 338.847 74.592C338.847 74.08 338.719 73.824 338.463 73.824C337.951 73.824 337.076 74.848 335.839 76.896C334.9 78.6027 333.897 80.416 332.831 82.336C331.807 84.2133 330.74 86.2187 329.631 88.352Z" fill="#2FCB48"/>
<path d="M138 157V110.455H158.091C161.545 110.455 164.568 111.136 167.159 112.5C169.75 113.864 171.765 115.78 173.205 118.25C174.644 120.72 175.364 123.606 175.364 126.909C175.364 130.242 174.621 133.129 173.136 135.568C171.667 138.008 169.598 139.886 166.932 141.205C164.28 142.523 161.182 143.182 157.636 143.182H145.636V133.364H155.091C156.576 133.364 157.841 133.106 158.886 132.591C159.947 132.061 160.758 131.311 161.318 130.341C161.894 129.371 162.182 128.227 162.182 126.909C162.182 125.576 161.894 124.439 161.318 123.5C160.758 122.545 159.947 121.818 158.886 121.318C157.841 120.803 156.576 120.545 155.091 120.545H150.636V157H138ZM183.147 157V122.091H191.125V127.909H191.488C192.125 125.894 193.215 124.341 194.761 123.25C196.322 122.144 198.102 121.591 200.102 121.591C200.556 121.591 201.064 121.614 201.625 121.659C202.2 121.689 202.678 121.742 203.056 121.818V129.386C202.708 129.265 202.155 129.159 201.397 129.068C200.655 128.962 199.935 128.909 199.238 128.909C197.738 128.909 196.39 129.235 195.193 129.886C194.011 130.523 193.079 131.409 192.397 132.545C191.715 133.682 191.375 134.992 191.375 136.477V157H183.147ZM219.863 157.705C217.651 157.705 215.658 157.311 213.885 156.523C212.128 155.72 210.734 154.538 209.704 152.977C208.688 151.417 208.181 149.492 208.181 147.205C208.181 145.235 208.545 143.606 209.272 142.318C209.999 141.03 210.992 140 212.249 139.227C213.507 138.455 214.923 137.871 216.499 137.477C218.09 137.068 219.734 136.773 221.431 136.591C223.476 136.379 225.135 136.189 226.408 136.023C227.681 135.841 228.605 135.568 229.181 135.205C229.772 134.826 230.067 134.242 230.067 133.455V133.318C230.067 131.606 229.56 130.28 228.545 129.341C227.529 128.402 226.067 127.932 224.158 127.932C222.143 127.932 220.545 128.371 219.363 129.25C218.196 130.129 217.408 131.167 216.999 132.364L209.317 131.273C209.923 129.152 210.923 127.379 212.317 125.955C213.711 124.515 215.416 123.439 217.431 122.727C219.446 122 221.673 121.636 224.113 121.636C225.795 121.636 227.469 121.833 229.135 122.227C230.802 122.621 232.325 123.273 233.704 124.182C235.082 125.076 236.188 126.295 237.022 127.841C237.87 129.386 238.295 131.318 238.295 133.636V157H230.385V152.205H230.113C229.613 153.174 228.908 154.083 227.999 154.932C227.105 155.765 225.976 156.439 224.613 156.955C223.264 157.455 221.681 157.705 219.863 157.705ZM221.999 151.659C223.651 151.659 225.082 151.333 226.295 150.682C227.507 150.015 228.438 149.136 229.09 148.045C229.757 146.955 230.09 145.765 230.09 144.477V140.364C229.832 140.576 229.393 140.773 228.772 140.955C228.166 141.136 227.484 141.295 226.726 141.432C225.969 141.568 225.219 141.689 224.476 141.795C223.734 141.902 223.09 141.992 222.545 142.068C221.317 142.235 220.219 142.508 219.249 142.886C218.279 143.265 217.514 143.795 216.954 144.477C216.393 145.144 216.113 146.008 216.113 147.068C216.113 148.583 216.666 149.727 217.772 150.5C218.878 151.273 220.287 151.659 221.999 151.659ZM263.669 170.818C260.715 170.818 258.177 170.417 256.055 169.614C253.934 168.826 252.23 167.765 250.942 166.432C249.654 165.098 248.76 163.621 248.26 162L255.669 160.205C256.002 160.886 256.487 161.561 257.124 162.227C257.76 162.909 258.616 163.47 259.692 163.909C260.783 164.364 262.154 164.591 263.805 164.591C266.139 164.591 268.071 164.023 269.601 162.886C271.131 161.765 271.896 159.917 271.896 157.341V150.727H271.487C271.063 151.576 270.442 152.447 269.624 153.341C268.821 154.235 267.752 154.985 266.419 155.591C265.101 156.197 263.442 156.5 261.442 156.5C258.76 156.5 256.328 155.871 254.146 154.614C251.98 153.341 250.252 151.447 248.965 148.932C247.692 146.402 247.055 143.235 247.055 139.432C247.055 135.598 247.692 132.364 248.965 129.727C250.252 127.076 251.987 125.068 254.169 123.705C256.351 122.326 258.783 121.636 261.465 121.636C263.51 121.636 265.192 121.985 266.51 122.682C267.843 123.364 268.904 124.189 269.692 125.159C270.48 126.114 271.078 127.015 271.487 127.864H271.942V122.091H280.055V157.568C280.055 160.553 279.343 163.023 277.919 164.977C276.495 166.932 274.548 168.394 272.078 169.364C269.608 170.333 266.805 170.818 263.669 170.818ZM263.737 150.045C265.48 150.045 266.965 149.621 268.192 148.773C269.419 147.924 270.351 146.705 270.987 145.114C271.624 143.523 271.942 141.614 271.942 139.386C271.942 137.189 271.624 135.265 270.987 133.614C270.366 131.962 269.442 130.682 268.215 129.773C267.002 128.848 265.51 128.386 263.737 128.386C261.904 128.386 260.374 128.864 259.146 129.818C257.919 130.773 256.995 132.083 256.374 133.75C255.752 135.402 255.442 137.28 255.442 139.386C255.442 141.523 255.752 143.394 256.374 145C257.01 146.591 257.942 147.833 259.169 148.727C260.412 149.606 261.934 150.045 263.737 150.045ZM312.657 142.318V122.091H320.885V157H312.907V150.795H312.544C311.756 152.75 310.46 154.348 308.657 155.591C306.869 156.833 304.665 157.455 302.044 157.455C299.756 157.455 297.733 156.947 295.975 155.932C294.233 154.902 292.869 153.409 291.885 151.455C290.9 149.485 290.407 147.106 290.407 144.318V122.091H298.635V143.045C298.635 145.258 299.241 147.015 300.453 148.318C301.665 149.621 303.256 150.273 305.225 150.273C306.438 150.273 307.612 149.977 308.748 149.386C309.885 148.795 310.816 147.917 311.544 146.75C312.286 145.568 312.657 144.091 312.657 142.318ZM346.719 157.682C343.219 157.682 340.197 156.955 337.651 155.5C335.121 154.03 333.174 151.955 331.81 149.273C330.447 146.576 329.765 143.402 329.765 139.75C329.765 136.159 330.447 133.008 331.81 130.295C333.189 127.568 335.113 125.447 337.583 123.932C340.053 122.402 342.954 121.636 346.288 121.636C348.439 121.636 350.469 121.985 352.378 122.682C354.303 123.364 356 124.424 357.469 125.864C358.954 127.303 360.121 129.136 360.969 131.364C361.818 133.576 362.242 136.212 362.242 139.273V141.795H333.628V136.25H354.356C354.341 134.674 354 133.273 353.333 132.045C352.666 130.803 351.734 129.826 350.538 129.114C349.356 128.402 347.977 128.045 346.401 128.045C344.719 128.045 343.242 128.455 341.969 129.273C340.697 130.076 339.704 131.136 338.992 132.455C338.295 133.758 337.939 135.189 337.924 136.75V141.591C337.924 143.621 338.295 145.364 339.038 146.818C339.78 148.258 340.818 149.364 342.151 150.136C343.484 150.894 345.045 151.273 346.833 151.273C348.03 151.273 349.113 151.106 350.083 150.773C351.053 150.424 351.894 149.917 352.606 149.25C353.318 148.583 353.856 147.758 354.219 146.773L361.901 147.636C361.416 149.667 360.492 151.439 359.128 152.955C357.78 154.455 356.053 155.621 353.947 156.455C351.841 157.273 349.431 157.682 346.719 157.682Z" fill="#2FCB48"/>
</svg>
